# xmcd
#
# Track frame offsets:
# 150
# 12526
# 24241
# 37032
# 49688
# 63316
# 73720
# 87914
# 102636
# 115337
# 124620
# 135072
#
# Disc length: 1994 seconds
#
#
# Revision: 0
# Processed by: cddbd v1.5.2PL0 Copyright (c) Steve Scherf et al.
# Submitted via: FreeRIP 2.945 
#
DISCID=9d07c80c
DTITLE=Tchê Barbaridade - Moça Fandangueira
DYEAR=1900
DGENRE=
TTITLE0=Moça Fandangueira
TTITLE1=Vamo Pro Sul
TTITLE2=Morena Flor
TTITLE3=Ela é Maleva
TTITLE4=Cheiroso
TTITLE5=Ameaças de Amor
TTITLE6=Embalo da Vaneira
TTITLE7=Não sei Dançar
TTITLE8=Mondongo
TTITLE9=Chimarrão pra Ela
TTITLE10=Monarcas da Serra
TTITLE11=Cançãp á Jovem Gaúcha
EXTD=
EXTT0=
EXTT1=
EXTT2=
EXTT3=
EXTT4=
EXTT5=
EXTT6=
EXTT7=
EXTT8=
EXTT9=
EXTT10=
EXTT11=
PLAYORDER=
